<svg xmlns="http://www.w3.org/2000/svg" xmlns:xlink="http://www.w3.org/1999/xlink" width="250" zoomAndPan="magnify" viewBox="0 0 187.5 74.999997" height="100" preserveAspectRatio="xMidYMid meet" version="1.0"><defs><g/><clipPath id="id1"><path d="M 10.8125 11 L 30 11 L 30 39 L 10.8125 39 Z M 10.8125 11 " clip-rule="nonzero"/></clipPath><clipPath id="id2"><path d="M 45 11 L 64.0625 11 L 64.0625 39 L 45 39 Z M 45 11 " clip-rule="nonzero"/></clipPath><clipPath id="id3"><path d="M 28 5 L 46 5 L 46 45.742188 L 28 45.742188 Z M 28 5 " clip-rule="nonzero"/></clipPath><clipPath id="id4"><path d="M 28 4.492188 L 47 4.492188 L 47 45.742188 L 28 45.742188 Z M 28 4.492188 " clip-rule="nonzero"/></clipPath></defs><path fill="#03fa6e" d="M 27.609375 38.125 C 27.316406 38.125 27.027344 38.027344 26.796875 37.84375 L 11.902344 26.152344 C 11.582031 25.898438 11.398438 25.523438 11.398438 25.117188 C 11.398438 24.710938 11.582031 24.335938 11.902344 24.082031 L 26.796875 12.394531 C 27.027344 12.210938 27.316406 12.109375 27.609375 12.109375 C 28.015625 12.109375 28.398438 12.292969 28.644531 12.613281 C 28.863281 12.886719 28.964844 13.234375 28.921875 13.582031 C 28.878906 13.929688 28.703125 14.242188 28.425781 14.460938 L 14.855469 25.117188 L 28.425781 35.773438 C 28.703125 35.992188 28.878906 36.304688 28.921875 36.652344 C 28.964844 37 28.863281 37.34375 28.644531 37.621094 C 28.398438 37.941406 28.015625 38.125 27.609375 38.125 " fill-opacity="1" fill-rule="nonzero"/><g clip-path="url(#id1)"><path fill="#050a30" d="M 27.609375 11.550781 C 27.191406 11.550781 26.78125 11.691406 26.449219 11.953125 L 11.554688 23.640625 C 11.097656 24.003906 10.835938 24.539062 10.835938 25.117188 C 10.835938 25.695312 11.101562 26.234375 11.554688 26.59375 L 26.449219 38.285156 C 26.777344 38.542969 27.191406 38.683594 27.609375 38.683594 C 28.191406 38.683594 28.730469 38.421875 29.089844 37.96875 C 29.402344 37.574219 29.539062 37.085938 29.480469 36.585938 C 29.417969 36.089844 29.171875 35.644531 28.773438 35.332031 L 15.761719 25.117188 L 28.773438 14.902344 C 29.171875 14.589844 29.417969 14.144531 29.480469 13.648438 C 29.539062 13.152344 29.402344 12.660156 29.089844 12.265625 C 28.730469 11.808594 28.191406 11.550781 27.609375 11.550781 Z M 27.609375 12.671875 C 27.835938 12.671875 28.058594 12.769531 28.207031 12.957031 C 28.464844 13.289062 28.410156 13.761719 28.082031 14.019531 L 13.945312 25.117188 L 28.082031 36.214844 C 28.410156 36.472656 28.464844 36.949219 28.207031 37.273438 C 28.058594 37.464844 27.835938 37.5625 27.609375 37.5625 C 27.445312 37.5625 27.28125 37.511719 27.144531 37.402344 L 12.25 25.710938 C 12.066406 25.566406 11.960938 25.347656 11.960938 25.117188 C 11.960938 24.882812 12.066406 24.667969 12.25 24.523438 L 27.144531 12.832031 C 27.28125 12.722656 27.445312 12.671875 27.609375 12.671875 " fill-opacity="1" fill-rule="nonzero"/></g><path fill="#03fa6e" d="M 47.261719 38.125 C 46.855469 38.125 46.476562 37.941406 46.222656 37.621094 C 45.773438 37.054688 45.871094 36.222656 46.445312 35.773438 L 60.019531 25.117188 L 46.445312 14.460938 C 45.871094 14.011719 45.773438 13.183594 46.222656 12.613281 C 46.476562 12.292969 46.855469 12.109375 47.261719 12.109375 C 47.554688 12.109375 47.84375 12.210938 48.078125 12.394531 L 62.96875 24.082031 C 63.289062 24.335938 63.472656 24.710938 63.472656 25.117188 C 63.472656 25.523438 63.289062 25.898438 62.96875 26.152344 L 48.078125 37.84375 C 47.84375 38.027344 47.554688 38.125 47.261719 38.125 " fill-opacity="1" fill-rule="nonzero"/><g clip-path="url(#id2)"><path fill="#050a30" d="M 47.261719 11.550781 C 46.679688 11.550781 46.140625 11.808594 45.78125 12.265625 C 45.140625 13.078125 45.28125 14.261719 46.097656 14.902344 L 59.109375 25.117188 L 46.097656 35.332031 C 45.28125 35.972656 45.140625 37.15625 45.78125 37.96875 C 46.140625 38.421875 46.679688 38.683594 47.261719 38.683594 C 47.679688 38.683594 48.09375 38.542969 48.421875 38.285156 L 63.316406 26.59375 C 63.773438 26.234375 64.03125 25.695312 64.03125 25.117188 C 64.03125 24.539062 63.773438 24.003906 63.316406 23.640625 L 48.425781 11.953125 C 48.09375 11.691406 47.679688 11.550781 47.261719 11.550781 Z M 47.261719 12.671875 C 47.425781 12.671875 47.589844 12.722656 47.726562 12.832031 L 62.621094 24.523438 C 62.804688 24.667969 62.910156 24.882812 62.910156 25.117188 C 62.910156 25.347656 62.804688 25.566406 62.621094 25.710938 L 47.726562 37.402344 C 47.589844 37.511719 47.425781 37.5625 47.261719 37.5625 C 47.035156 37.5625 46.8125 37.464844 46.664062 37.273438 C 46.40625 36.949219 46.464844 36.472656 46.792969 36.214844 L 60.929688 25.117188 L 46.792969 14.019531 C 46.464844 13.761719 46.40625 13.289062 46.664062 12.957031 C 46.8125 12.769531 47.039062 12.671875 47.261719 12.671875 " fill-opacity="1" fill-rule="nonzero"/></g><g clip-path="url(#id3)"><path fill="#03fa6e" d="M 30.035156 45.179688 C 29.871094 45.179688 29.710938 45.148438 29.558594 45.089844 C 29.230469 44.960938 28.96875 44.714844 28.828125 44.394531 C 28.683594 44.074219 28.679688 43.714844 28.804688 43.390625 L 43.347656 5.894531 C 43.542969 5.394531 44.039062 5.054688 44.578125 5.054688 C 44.742188 5.054688 44.902344 5.085938 45.058594 5.144531 C 45.734375 5.40625 46.074219 6.171875 45.808594 6.847656 L 31.265625 44.339844 C 31.070312 44.839844 30.574219 45.179688 30.035156 45.179688 " fill-opacity="1" fill-rule="nonzero"/></g><g clip-path="url(#id4)"><path fill="#050a30" d="M 44.578125 4.496094 C 43.808594 4.496094 43.101562 4.980469 42.824219 5.695312 L 28.28125 43.183594 C 28.101562 43.652344 28.113281 44.164062 28.3125 44.621094 C 28.519531 45.078125 28.886719 45.433594 29.355469 45.613281 C 29.574219 45.699219 29.800781 45.742188 30.035156 45.742188 C 30.804688 45.742188 31.511719 45.257812 31.789062 44.539062 L 46.332031 7.050781 C 46.707031 6.085938 46.226562 4.996094 45.257812 4.621094 C 45.039062 4.539062 44.8125 4.496094 44.578125 4.496094 Z M 44.578125 5.617188 C 44.671875 5.617188 44.761719 5.632812 44.851562 5.667969 C 45.242188 5.816406 45.4375 6.253906 45.285156 6.644531 L 30.742188 44.136719 C 30.625 44.4375 30.339844 44.621094 30.035156 44.621094 C 29.941406 44.621094 29.851562 44.605469 29.761719 44.566406 C 29.371094 44.417969 29.175781 43.976562 29.328125 43.589844 L 43.871094 6.101562 C 43.988281 5.800781 44.273438 5.617188 44.578125 5.617188 " fill-opacity="1" fill-rule="nonzero"/></g><g fill="#171810" fill-opacity="1"><g transform="translate(68.571297, 40.133587)"><g><path d="M 13.429688 -5.472656 L 6.359375 -28.816406 L 0.355469 -28.816406 L 9.378906 0 L 17.480469 0 L 26.578125 -28.816406 L 20.609375 -28.816406 Z M 13.429688 -5.472656 "/></g></g></g><g fill="#171810" fill-opacity="1"><g transform="translate(94.133166, 40.133587)"><g><path d="M 11.9375 0.460938 C 18.867188 0.460938 23.167969 -2.664062 23.167969 -8.066406 L 23.167969 -8.136719 C 23.167969 -13.039062 20.574219 -14.996094 13.253906 -17.269531 C 9.378906 -18.511719 7.851562 -19.363281 7.851562 -21.355469 L 7.851562 -21.390625 C 7.851562 -23.058594 9.414062 -24.339844 12.71875 -24.339844 C 15.527344 -24.339844 18.371094 -23.523438 20.464844 -22.136719 L 22.597656 -26.789062 C 20.144531 -28.390625 16.414062 -29.3125 12.683594 -29.3125 C 6.148438 -29.3125 2.238281 -26.078125 2.238281 -21.285156 L 2.238281 -21.210938 C 2.238281 -16.449219 4.40625 -14.210938 10.695312 -12.328125 C 15.847656 -10.730469 17.515625 -9.949219 17.515625 -8.03125 L 17.515625 -7.996094 C 17.515625 -5.792969 15.207031 -4.546875 11.726562 -4.546875 C 8.597656 -4.546875 5.578125 -5.402344 3.445312 -6.820312 L 1.316406 -2.203125 C 3.871094 -0.496094 7.816406 0.460938 11.9375 0.460938 Z M 11.9375 0.460938 "/></g></g></g><g fill="#03fa6e" fill-opacity="1"><g transform="translate(33.369903, 63.811762)"><g><path d="M 9.472656 0 L 9.472656 -14.457031 L 15.066406 -14.457031 L 15.066406 -17.660156 L 0.433594 -17.660156 L 0.433594 -14.457031 L 6.054688 -14.457031 L 6.054688 0 Z M 9.472656 0 "/></g></g></g><g fill="#03fa6e" fill-opacity="1"><g transform="translate(48.04566, 63.811762)"><g><path d="M 13.828125 -5.835938 C 13.828125 -10.300781 11.386719 -13 7.382812 -13 C 3.417969 -13 0.871094 -10.253906 0.871094 -6.359375 L 0.871094 -6.335938 C 0.871094 -2.375 3.59375 0.328125 7.796875 0.328125 C 10.234375 0.328125 11.953125 -0.433594 13.214844 -1.21875 L 11.714844 -3.898438 C 10.800781 -3.246094 9.472656 -2.699219 7.949219 -2.699219 C 6.054688 -2.699219 4.8125 -3.917969 4.464844 -5.53125 L 13.828125 -5.53125 Z M 7.359375 -10.191406 C 9.035156 -10.191406 10.039062 -9.101562 10.300781 -7.664062 L 4.484375 -7.664062 C 4.8125 -9.101562 5.855469 -10.191406 7.359375 -10.191406 Z M 7.359375 -10.191406 "/></g></g></g><g fill="#03fa6e" fill-opacity="1"><g transform="translate(61.937543, 63.811762)"><g><path d="M 7.664062 0.328125 C 9.167969 0.328125 10.800781 -0.0429688 11.976562 -0.695312 L 10.625 -3.265625 C 9.753906 -2.808594 8.863281 -2.546875 7.839844 -2.546875 C 5.617188 -2.546875 4.355469 -4.160156 4.355469 -6.3125 L 4.355469 -6.359375 C 4.355469 -8.535156 5.617188 -10.101562 7.839844 -10.101562 C 8.863281 -10.101562 9.777344 -9.820312 10.625 -9.363281 L 11.996094 -11.933594 C 10.800781 -12.605469 9.167969 -13 7.664062 -13 C 3.550781 -13 0.871094 -10.253906 0.871094 -6.359375 L 0.871094 -6.3125 C 0.871094 -2.394531 3.570312 0.328125 7.664062 0.328125 Z M 7.664062 0.328125 "/></g></g></g><g fill="#03fa6e" fill-opacity="1"><g transform="translate(73.630249, 63.811762)"><g><path d="M 4.636719 0 L 4.636719 -9.6875 C 5.445312 -9.820312 6.226562 -9.90625 6.835938 -9.90625 C 8.449219 -9.90625 9.320312 -9.320312 9.320312 -7.75 L 9.320312 0 L 12.757812 0 L 12.757812 -8.164062 C 12.757812 -11.910156 10.082031 -13 6.988281 -13 C 5.726562 -13 3.265625 -12.714844 1.175781 -12.347656 L 1.175781 0 Z M 4.636719 0 "/></g></g></g><g fill="#03fa6e" fill-opacity="1"><g transform="translate(86.760021, 63.811762)"><g><path d="M 7.816406 0.347656 C 11.910156 0.347656 14.761719 -2.480469 14.761719 -6.335938 L 14.761719 -6.359375 C 14.761719 -10.191406 11.910156 -13 7.816406 -13 C 3.722656 -13 0.894531 -10.191406 0.894531 -6.359375 L 0.894531 -6.335938 C 0.894531 -2.480469 3.746094 0.347656 7.816406 0.347656 Z M 7.816406 -2.742188 C 5.75 -2.742188 4.355469 -4.3125 4.355469 -6.335938 L 4.355469 -6.378906 C 4.355469 -8.382812 5.726562 -9.90625 7.816406 -9.90625 C 9.929688 -9.90625 11.277344 -8.382812 11.277344 -6.378906 L 11.277344 -6.335938 C 11.277344 -4.3125 9.90625 -2.742188 7.816406 -2.742188 Z M 7.816406 -2.742188 "/></g></g></g><g fill="#03fa6e" fill-opacity="1"><g transform="translate(101.566406, 63.811762)"><g><path d="M 4.636719 0 L 4.636719 -17.660156 L 1.175781 -17.660156 L 1.175781 0 Z M 4.636719 0 "/></g></g></g><g fill="#03fa6e" fill-opacity="1"><g transform="translate(106.552682, 63.811762)"><g><path d="M 7.816406 0.347656 C 11.910156 0.347656 14.761719 -2.480469 14.761719 -6.335938 L 14.761719 -6.359375 C 14.761719 -10.191406 11.910156 -13 7.816406 -13 C 3.722656 -13 0.894531 -10.191406 0.894531 -6.359375 L 0.894531 -6.335938 C 0.894531 -2.480469 3.746094 0.347656 7.816406 0.347656 Z M 7.816406 -2.742188 C 5.75 -2.742188 4.355469 -4.3125 4.355469 -6.335938 L 4.355469 -6.378906 C 4.355469 -8.382812 5.726562 -9.90625 7.816406 -9.90625 C 9.929688 -9.90625 11.277344 -8.382812 11.277344 -6.378906 L 11.277344 -6.335938 C 11.277344 -4.3125 9.90625 -2.742188 7.816406 -2.742188 Z M 7.816406 -2.742188 "/></g></g></g><g fill="#03fa6e" fill-opacity="1"><g transform="translate(121.359064, 63.811762)"><g><path d="M 8.078125 -13 C 3.65625 -13 0.894531 -10.84375 0.894531 -6.878906 L 0.894531 -6.835938 C 0.894531 -2.851562 3.503906 -0.566406 7.96875 -0.566406 C 8.710938 -0.566406 9.429688 -0.652344 10.101562 -0.785156 L 10.101562 -0.261719 C 10.101562 1.304688 9.449219 1.980469 7.382812 1.980469 C 6.226562 1.980469 4.246094 1.675781 3.003906 1.152344 L 3.765625 4.355469 C 4.550781 4.703125 6.292969 5.03125 7.839844 5.03125 C 10.886719 5.03125 13.566406 3.832031 13.566406 0.0859375 L 13.566406 -11.757812 C 12.257812 -12.367188 10.210938 -13 8.078125 -13 Z M 4.355469 -6.816406 C 4.355469 -8.972656 5.726562 -9.90625 8.078125 -9.90625 C 8.753906 -9.90625 9.429688 -9.820312 10.101562 -9.601562 L 10.101562 -3.898438 C 9.363281 -3.722656 8.6875 -3.65625 8.101562 -3.65625 C 5.703125 -3.65625 4.355469 -4.636719 4.355469 -6.792969 Z M 4.355469 -6.816406 "/></g></g></g><g fill="#03fa6e" fill-opacity="1"><g transform="translate(135.272707, 63.811762)"><g><path d="M 2.894531 -14.132812 C 3.855469 -14.132812 4.617188 -14.609375 4.617188 -15.65625 C 4.617188 -16.589844 3.917969 -17.15625 2.894531 -17.15625 C 1.894531 -17.15625 1.175781 -16.589844 1.175781 -15.65625 C 1.175781 -14.609375 1.960938 -14.132812 2.894531 -14.132812 Z M 4.636719 0 L 4.636719 -12.5 L 1.175781 -12.5 L 1.175781 0 Z M 4.636719 0 "/></g></g></g><g fill="#03fa6e" fill-opacity="1"><g transform="translate(140.258982, 63.811762)"><g><path d="M 7.011719 -12.933594 C 5.421875 -12.933594 3.570312 -12.585938 2.632812 -12.214844 L 1.871094 -9.144531 C 3.246094 -9.6875 5.03125 -10.015625 6.269531 -10.015625 C 8.1875 -10.015625 9.277344 -9.449219 9.277344 -7.882812 L 9.277344 -7.425781 C 8.253906 -7.554688 7.359375 -7.597656 6.445312 -7.597656 C 3.027344 -7.597656 0.871094 -6.378906 0.871094 -3.722656 L 0.871094 -3.679688 C 0.871094 -0.742188 3.246094 0.347656 7.078125 0.347656 C 8.773438 0.347656 11.019531 0.109375 12.738281 -0.261719 L 12.738281 -7.992188 C 12.738281 -11.691406 10.472656 -12.933594 7.011719 -12.933594 Z M 4.421875 -3.898438 C 4.421875 -5.007812 5.464844 -5.398438 7.207031 -5.398438 C 7.75 -5.398438 8.578125 -5.335938 9.277344 -5.226562 L 9.277344 -2.527344 C 8.558594 -2.417969 7.796875 -2.351562 7.207031 -2.351562 C 5.445312 -2.351562 4.421875 -2.785156 4.421875 -3.855469 Z M 4.421875 -3.898438 "/></g></g></g></svg>